<?xml version="1.0" encoding="UTF-8"?>
<svg width="48" height="48" version="1.1" viewBox="0 0 48 48" xmlns="http://www.w3.org/2000/svg">
    <defs>
        <clipPath id="clipPath2">
            <rect x="11.418" y="9.637" width="26" height="26" fill="#fff" />
        </clipPath>
    </defs>
    <g fill="#4338ca">
        <path transform="matrix(-.21189 -1.7775 1.7772 -.209 -26.359 70.943)"
            d="m33.61 25.57c1.697 0 3.0727-1.3758 3.0727-3.0728s-1.3757-3.0727-3.0727-3.0727c-1.6971 0-3.0728 1.3757-3.0728 3.0727s1.3757 3.0728 3.0728 3.0728z"
            clip-path="url(#clipPath2)" opacity=".2" />
        <path transform="matrix(-.21189 -1.7775 1.7772 -.209 6.6408 70.943)"
            d="m33.61 25.57c1.697 0 3.0727-1.3758 3.0727-3.0728s-1.3757-3.0727-3.0727-3.0727c-1.6971 0-3.0728 1.3757-3.0728 3.0727s1.3757 3.0728 3.0728 3.0728z"
            clip-path="url(#clipPath2)" opacity=".2" />
        <path transform="matrix(-.21189 -1.7775 1.7772 -.209 -26.359 105.94)"
            d="m33.61 25.57c1.697 0 3.0727-1.3758 3.0727-3.0728s-1.3757-3.0727-3.0727-3.0727c-1.6971 0-3.0728 1.3757-3.0728 3.0727s1.3757 3.0728 3.0728 3.0728z"
            clip-path="url(#clipPath2)" opacity=".2" />
        <path transform="matrix(-.21189 -1.7775 1.7772 -.209 6.6408 105.94)"
            d="m33.61 25.57c1.697 0 3.0727-1.3758 3.0727-3.0728s-1.3757-3.0727-3.0727-3.0727c-1.6971 0-3.0728 1.3757-3.0728 3.0727s1.3757 3.0728 3.0728 3.0728z"
            clip-path="url(#clipPath2)" opacity=".2" />
        <path transform="matrix(-.21189 -1.7775 1.7772 -.209 -26.359 88.443)"
            d="m33.61 25.57c1.697 0 3.0727-1.3758 3.0727-3.0728s-1.3757-3.0727-3.0727-3.0727c-1.6971 0-3.0728 1.3757-3.0728 3.0727s1.3757 3.0728 3.0728 3.0728z"
            clip-path="url(#clipPath2)" />
        <path transform="matrix(-.21189 -1.7775 1.7772 -.209 6.6408 88.443)"
            d="m33.61 25.57c1.697 0 3.0727-1.3758 3.0727-3.0728s-1.3757-3.0727-3.0727-3.0727c-1.6971 0-3.0728 1.3757-3.0728 3.0727s1.3757 3.0728 3.0728 3.0728z"
            clip-path="url(#clipPath2)" />
        <path transform="matrix(-.21189 -1.7775 1.7772 -.209 -9.8592 70.943)"
            d="m33.61 25.57c1.697 0 3.0727-1.3758 3.0727-3.0728s-1.3757-3.0727-3.0727-3.0727c-1.6971 0-3.0728 1.3757-3.0728 3.0727s1.3757 3.0728 3.0728 3.0728z"
            clip-path="url(#clipPath2)" />
        <path transform="matrix(-.21189 -1.7775 1.7772 -.209 -9.8592 105.94)"
            d="m33.61 25.57c1.697 0 3.0727-1.3758 3.0727-3.0728s-1.3757-3.0727-3.0727-3.0727c-1.6971 0-3.0728 1.3757-3.0728 3.0727s1.3757 3.0728 3.0728 3.0728z"
            clip-path="url(#clipPath2)" />
        <path transform="matrix(-.21189 -1.7775 1.7772 -.209 -9.8592 88.443)"
            d="m33.61 25.57c1.697 0 3.0727-1.3758 3.0727-3.0728s-1.3757-3.0727-3.0727-3.0727c-1.6971 0-3.0728 1.3757-3.0728 3.0727s1.3757 3.0728 3.0728 3.0728z"
            clip-path="url(#clipPath2)" />
    </g>
</svg>