<?xml version="1.0" encoding="utf-8"?>
<svg viewBox="110.7516 18.6467 27.6507 27.6507" xmlns="http://www.w3.org/2000/svg">
  <ellipse cx="117.237" cy="32.468" rx="2.447" ry="2.441" fill="#242424" transform="matrix(-0.707107, 0.707107, -0.707107, -0.707107, 235.627411, -32.656063)" style=""/>
  <ellipse cx="124.581" cy="32.468" rx="2.447" ry="2.441" fill="#242424" transform="matrix(-0.707107, 0.707107, -0.707107, -0.707107, 240.803421, -27.48004)" style=""/>
  <ellipse cx="124.581" cy="39.796" rx="2.447" ry="2.441" fill="#242424" transform="matrix(-0.707107, 0.707107, -0.707107, -0.707107, 235.627411, -32.656066)" style=""/>
  <ellipse cx="131.917" cy="32.468" rx="2.447" ry="2.441" fill="#242424" transform="matrix(-0.707107, 0.707107, -0.707107, -0.707107, 235.627406, -32.656091)" style=""/>
  <ellipse cx="117.237" cy="32.468" rx="2.447" ry="2.441" fill="#242424" transform="matrix(-0.707107, 0.707107, -0.707107, -0.707107, 230.445767, -27.480048)" style=""/>
  <ellipse cx="117.237" cy="32.468" rx="2.447" ry="2.441" transform="matrix(-0.707107, 0.707107, -0.707107, -0.707107, 230.545516, -37.837746)" style="fill: rgb(105, 108, 255);"/>
  <ellipse cx="117.237" cy="32.468" rx="2.447" ry="2.441" transform="matrix(-0.707107, 0.707107, -0.707107, -0.707107, 230.445798, -17.099725)" style="fill: rgb(105, 108, 255);"/>
  <ellipse cx="117.237" cy="32.468" rx="2.447" ry="2.441" transform="matrix(-0.707107, 0.707107, -0.707107, -0.707107, 220.065444, -27.480048)" style="fill: rgb(105, 108, 255);"/>
  <ellipse cx="117.237" cy="32.468" rx="2.447" ry="2.441" transform="matrix(-0.707107, 0.707107, -0.707107, -0.707107, 240.803527, -27.480039)" style="fill: rgb(105, 108, 255);"/>
</svg>