<?xml version="1.0" encoding="utf-8"?>
<svg width="26" height="26" xmlns="http://www.w3.org/2000/svg">
    <g>
        <ellipse id="svg_1"
            transform="matrix(-0.707107, 0.707107, -0.707107, -0.707107, 235.627, -32.6561)"
            fill="#242424" ry="2.441" rx="2.447" cy="125.39769" cx="182.36504" />
        <ellipse id="svg_2"
            transform="matrix(-0.707107, 0.707107, -0.707107, -0.707107, 240.803, -27.48)"
            fill="#242424" ry="2.441" rx="2.447" cy="125.39769" cx="189.70904" />
        <ellipse id="svg_3"
            transform="matrix(-0.707107, 0.707107, -0.707107, -0.707107, 235.627, -32.6561)"
            fill="#242424" ry="2.441" rx="2.447" cy="132.72569" cx="189.70904" />
        <ellipse id="svg_4"
            transform="matrix(-0.707107, 0.707107, -0.707107, -0.707107, 235.627, -32.6561)"
            fill="#242424" ry="2.441" rx="2.447" cy="125.39769" cx="197.04504" />
        <ellipse id="svg_5"
            transform="matrix(-0.707107, 0.707107, -0.707107, -0.707107, 230.446, -27.48)"
            fill="#242424" ry="2.441" rx="2.447" cy="125.39769" cx="182.36504" />
        <ellipse id="svg_6" fill=" rgb(105, 108, 255)"
            transform="matrix(-0.707107, 0.707107, -0.707107, -0.707107, 230.546, -37.8377)"
            ry="2.441" rx="2.447" cy="125.39769" cx="182.36504" />
        <ellipse id="svg_7" fill=" rgb(105, 108, 255)"
            transform="matrix(-0.707107, 0.707107, -0.707107, -0.707107, 230.446, -17.0997)"
            ry="2.441" rx="2.447" cy="125.39769" cx="182.36504" />
        <ellipse id="svg_8" fill=" rgb(105, 108, 255)"
            transform="matrix(-0.707107, 0.707107, -0.707107, -0.707107, 220.065, -27.48)"
            ry="2.441" rx="2.447" cy="125.39769" cx="182.36504" />
        <ellipse id="svg_9" fill=" rgb(105, 108, 255)"
            transform="matrix(-0.707107, 0.707107, -0.707107, -0.707107, 240.804, -27.48)"
            ry="2.441" rx="2.447" cy="125.39769" cx="182.36504" />
    </g>
</svg>